<svg width="1052" height="1095" viewBox="0 0 1052 1095" fill="none" xmlns="http://www.w3.org/2000/svg">
<rect x="110.25" y="1.25" width="821.5" height="1092.46" rx="32.75" fill="#0E0521"/>
<rect x="110.25" y="1.25" width="821.5" height="1092.46" rx="32.75" fill="url(#paint0_radial_3565_1853)" fill-opacity="0.2"/>
<rect x="110.25" y="1.25" width="821.5" height="1092.46" rx="32.75" stroke="#736494" stroke-opacity="0.5" stroke-width="1.5"/>
<rect x="110.25" y="1.25" width="821.5" height="1092.46" rx="32.75" stroke="url(#paint1_radial_3565_1853)" stroke-opacity="0.3" stroke-width="1.5" style="mix-blend-mode:overlay"/>
<rect x="110.25" y="1.25" width="821.5" height="1092.46" rx="32.75" stroke="url(#paint2_radial_3565_1853)" stroke-width="1.5" style="mix-blend-mode:overlay"/>
<path d="M111 34C111 16.3269 125.327 2 143 2H899C916.673 2 931 16.3269 931 34V110H111V34Z" fill="#26154A"/>
<circle cx="175.168" cy="56" r="13.8645" fill="#49327A"/>
<circle cx="228.897" cy="56" r="13.8645" fill="#49327A"/>
<circle cx="282.626" cy="56" r="13.8645" fill="#49327A"/>
<rect x="171.047" y="406.982" width="259.37" height="32" rx="8.03361" fill="#FFD52B" fill-opacity="0.4"/>
<rect x="462.416" y="406.982" width="407.63" height="32" rx="8.03361" fill="url(#paint3_linear_3565_1853)" fill-opacity="0.3"/>
<rect x="171.047" y="491.982" width="237.097" height="32" rx="8.03361" fill="url(#paint4_linear_3565_1853)" fill-opacity="0.3"/>
<rect x="440.145" y="491.982" width="237.097" height="32" rx="8.03361" fill="url(#paint5_linear_3565_1853)" fill-opacity="0.3"/>
<rect x="709.241" y="491.982" width="160.805" height="32" rx="8.03361" fill="url(#paint6_linear_3565_1853)" fill-opacity="0.3"/>
<rect x="171.047" y="576.982" width="77.1968" height="32" rx="8.03361" fill="url(#paint7_linear_3565_1853)" fill-opacity="0.3"/>
<rect x="280.244" y="576.982" width="132.432" height="32" rx="8.03361" fill="url(#paint8_linear_3565_1853)" fill-opacity="0.3"/>
<rect x="171.047" y="661.982" width="226.623" height="32" rx="8.03361" fill="url(#paint9_linear_3565_1853)" fill-opacity="0.3"/>
<rect x="429.67" y="661.982" width="440.377" height="32" rx="8.03361" fill="url(#paint10_linear_3565_1853)" fill-opacity="0.6"/>
<rect x="171.047" y="746.982" width="242.891" height="32" rx="8.03361" fill="url(#paint11_linear_3565_1853)" fill-opacity="0.3"/>
<rect x="445.938" y="746.982" width="424.109" height="32" rx="8.03361" fill="url(#paint12_linear_3565_1853)" fill-opacity="0.6"/>
<rect x="171.047" y="831.982" width="77.1968" height="32" rx="8.03361" fill="url(#paint13_linear_3565_1853)" fill-opacity="0.3"/>
<rect x="280.244" y="831.982" width="589.803" height="32" rx="8.03361" fill="url(#paint14_linear_3565_1853)" fill-opacity="0.6"/>
<rect x="171.047" y="916.982" width="77.1968" height="32" rx="8.03361" fill="url(#paint15_linear_3565_1853)" fill-opacity="0.3"/>
<rect x="280.244" y="916.982" width="589.803" height="32" rx="8.03361" fill="url(#paint16_linear_3565_1853)" fill-opacity="0.3"/>
<rect x="171.047" y="1001.98" width="125.763" height="32" rx="8.03361" fill="#4F9DFD" fill-opacity="0.4"/>
<rect x="328.81" y="1001.98" width="541.237" height="32" rx="8.03361" fill="url(#paint17_linear_3565_1853)" fill-opacity="0.3"/>
<rect x="444.676" y="576.982" width="425.372" height="32" rx="8.03361" fill="#5EC900" fill-opacity="0.3"/>
<line x1="430.417" y1="593.117" x2="890.322" y2="593.117" stroke="#479700" stroke-width="5"/>
<mask id="path-25-inside-1_3565_1853" fill="white">
<path d="M1.75488 216.4C1.75488 202.959 1.75488 196.238 4.37073 191.104C6.67169 186.588 10.3432 182.917 14.8591 180.616C19.993 178 26.7136 178 40.1549 178H931V350.208H40.1549C26.7136 350.208 19.993 350.208 14.8591 347.592C10.3432 345.291 6.67169 341.619 4.37073 337.103C1.75488 331.969 1.75488 325.249 1.75488 311.808V216.4Z"/>
</mask>
<path d="M1.75488 216.4C1.75488 202.959 1.75488 196.238 4.37073 191.104C6.67169 186.588 10.3432 182.917 14.8591 180.616C19.993 178 26.7136 178 40.1549 178H931V350.208H40.1549C26.7136 350.208 19.993 350.208 14.8591 347.592C10.3432 345.291 6.67169 341.619 4.37073 337.103C1.75488 331.969 1.75488 325.249 1.75488 311.808V216.4Z" fill="#0E0521" fill-opacity="0.8"/>
<path d="M1.75488 216.4C1.75488 202.959 1.75488 196.238 4.37073 191.104C6.67169 186.588 10.3432 182.917 14.8591 180.616C19.993 178 26.7136 178 40.1549 178H931V350.208H40.1549C26.7136 350.208 19.993 350.208 14.8591 347.592C10.3432 345.291 6.67169 341.619 4.37073 337.103C1.75488 331.969 1.75488 325.249 1.75488 311.808V216.4Z" fill="url(#paint18_radial_3565_1853)" fill-opacity="0.7"/>
<path d="M0.254883 202C0.254883 187.917 11.6716 176.5 25.7549 176.5H931V179.5H25.7549C13.3285 179.5 3.25488 189.574 3.25488 202H0.254883ZM931 351.708H25.7549C11.6716 351.708 0.254883 340.291 0.254883 326.208H3.25488C3.25488 338.634 13.3285 348.708 25.7549 348.708H931V351.708ZM25.7549 351.708C11.6716 351.708 0.254883 340.291 0.254883 326.208V202C0.254883 187.917 11.6716 176.5 25.7549 176.5V179.5C13.3285 179.5 3.25488 189.574 3.25488 202V326.208C3.25488 338.634 13.3285 348.708 25.7549 348.708V351.708ZM931 178V350.208V178Z" fill="#736494" fill-opacity="0.5" mask="url(#path-25-inside-1_3565_1853)"/>
<path d="M0.254883 202C0.254883 187.917 11.6716 176.5 25.7549 176.5H931V179.5H25.7549C13.3285 179.5 3.25488 189.574 3.25488 202H0.254883ZM931 351.708H25.7549C11.6716 351.708 0.254883 340.291 0.254883 326.208H3.25488C3.25488 338.634 13.3285 348.708 25.7549 348.708H931V351.708ZM25.7549 351.708C11.6716 351.708 0.254883 340.291 0.254883 326.208V202C0.254883 187.917 11.6716 176.5 25.7549 176.5V179.5C13.3285 179.5 3.25488 189.574 3.25488 202V326.208C3.25488 338.634 13.3285 348.708 25.7549 348.708V351.708ZM931 178V350.208V178Z" fill="url(#paint19_radial_3565_1853)" fill-opacity="0.3" style="mix-blend-mode:overlay" mask="url(#path-25-inside-1_3565_1853)"/>
<path d="M0.254883 202C0.254883 187.917 11.6716 176.5 25.7549 176.5H931V179.5H25.7549C13.3285 179.5 3.25488 189.574 3.25488 202H0.254883ZM931 351.708H25.7549C11.6716 351.708 0.254883 340.291 0.254883 326.208H3.25488C3.25488 338.634 13.3285 348.708 25.7549 348.708H931V351.708ZM25.7549 351.708C11.6716 351.708 0.254883 340.291 0.254883 326.208V202C0.254883 187.917 11.6716 176.5 25.7549 176.5V179.5C13.3285 179.5 3.25488 189.574 3.25488 202V326.208C3.25488 338.634 13.3285 348.708 25.7549 348.708V351.708ZM931 178V350.208V178Z" fill="url(#paint20_radial_3565_1853)" style="mix-blend-mode:overlay" mask="url(#path-25-inside-1_3565_1853)"/>
<path d="M84.6115 234.334H57.3053C55.4623 234.334 53.6949 235.066 52.3917 236.369C51.0885 237.673 50.3564 239.44 50.3564 241.283V289.925C50.3564 291.768 51.0885 293.535 52.3917 294.838C53.6949 296.141 55.4623 296.873 57.3053 296.873H105.947C107.79 296.873 109.557 296.141 110.86 294.838C112.164 293.535 112.896 291.768 112.896 289.925V265.04" stroke="#8F80AD" stroke-width="2.87536" stroke-linecap="round" stroke-linejoin="round"/>
<path d="M78.0096 248.342H64.5908" stroke="#8F80AD" stroke-width="2.87536" stroke-linecap="round" stroke-linejoin="round"/>
<path d="M72.1907 265.916H64.5908" stroke="#8F80AD" stroke-width="2.87536" stroke-linecap="round" stroke-linejoin="round"/>
<path d="M96.9494 283.49H64.5908" stroke="#8F80AD" stroke-width="2.87536" stroke-linecap="round" stroke-linejoin="round"/>
<path d="M111.678 229.906C112.622 228.963 113.901 228.432 115.236 228.432C116.57 228.432 117.849 228.963 118.793 229.906C119.736 230.849 120.266 232.129 120.266 233.463C120.266 234.797 119.736 236.077 118.793 237.02L96.2641 259.549L86.7783 261.92L89.1498 252.435L111.678 229.906Z" stroke="#8F80AD" stroke-width="2.87536" stroke-linecap="round" stroke-linejoin="round"/>
<path d="M115.235 228.432C113.901 228.432 112.621 228.963 111.678 229.906L106.046 235.538L113.16 242.652L118.792 237.02C119.736 236.077 120.266 234.797 120.266 233.463C120.266 232.129 119.736 230.849 118.792 229.906C117.849 228.963 116.569 228.432 115.235 228.432Z" fill="#8F80AD"/>
<path d="M232.819 234.334H205.513C203.67 234.334 201.903 235.066 200.6 236.369C199.297 237.673 198.564 239.44 198.564 241.283V289.925C198.564 291.768 199.297 293.535 200.6 294.838C201.903 296.141 203.67 296.873 205.513 296.873H254.155C255.998 296.873 257.765 296.141 259.068 294.838C260.372 293.535 261.104 291.768 261.104 289.925V265.04" stroke="#8F80AD" stroke-width="2.87536" stroke-linecap="round" stroke-linejoin="round"/>
<path fill-rule="evenodd" clip-rule="evenodd" d="M222.967 267.555C213.993 267.555 208.864 277.812 208.864 277.812C208.864 277.812 213.993 288.069 222.967 288.069C231.942 288.069 237.071 277.812 237.071 277.812C237.071 277.812 231.942 267.555 222.967 267.555ZM228.136 277.813C228.136 280.667 225.822 282.981 222.968 282.981C220.113 282.981 217.799 280.667 217.799 277.813C217.799 274.958 220.113 272.644 222.968 272.644C225.822 272.644 228.136 274.958 228.136 277.813Z" fill="#2563EB"/>
<path d="M259.884 229.906C260.828 228.963 262.107 228.432 263.442 228.432C264.776 228.432 266.055 228.963 266.999 229.906C267.942 230.849 268.472 232.129 268.472 233.463C268.472 234.797 267.942 236.077 266.999 237.02L244.47 259.549L234.984 261.92L237.356 252.435L259.884 229.906Z" stroke="#8F80AD" stroke-width="2.87536" stroke-linecap="round" stroke-linejoin="round"/>
<path d="M263.442 228.432C262.108 228.432 260.829 228.963 259.885 229.906L254.253 235.538L261.367 242.652L266.999 237.02C267.943 236.077 268.473 234.797 268.473 233.463C268.473 232.129 267.943 230.849 266.999 229.906C266.056 228.963 264.776 228.432 263.442 228.432Z" fill="#8F80AD"/>
<path d="M369.406 234.334H353.72C351.877 234.334 350.11 235.066 348.807 236.369C347.504 237.673 346.771 239.44 346.771 241.283V289.925C346.771 291.768 347.504 293.535 348.807 294.838C350.11 296.141 351.877 296.873 353.72 296.873H402.362C404.205 296.873 405.972 296.141 407.276 294.838C408.579 293.535 409.311 291.768 409.311 289.925L409.311 274.241" stroke="#8F80AD" stroke-width="2.87536" stroke-linecap="round" stroke-linejoin="round"/>
<path d="M369.165 248.342H361.007" stroke="#8F80AD" stroke-width="2.87536" stroke-linecap="round" stroke-linejoin="round"/>
<path d="M376.458 265.711H361.007" stroke="#8F80AD" stroke-width="2.87536" stroke-linecap="round" stroke-linejoin="round"/>
<path d="M392.69 283.079H361.007" stroke="#8F80AD" stroke-width="2.87536" stroke-linecap="round" stroke-linejoin="round"/>
<path d="M396.097 249.734L392.216 245.852C391.885 245.521 391.463 245.355 390.952 245.355C390.44 245.355 390.019 245.521 389.688 245.852C389.357 246.183 389.191 246.604 389.191 247.116C389.191 247.627 389.357 248.049 389.688 248.38L394.833 253.525C395.195 253.886 395.616 254.067 396.097 254.067C396.579 254.067 397 253.886 397.361 253.525L407.562 243.324C407.893 242.993 408.058 242.572 408.058 242.06C408.058 241.549 407.893 241.128 407.562 240.797C407.231 240.466 406.81 240.3 406.298 240.3C405.787 240.3 405.365 240.466 405.034 240.797L396.097 249.734ZM398.625 264.538C396.127 264.538 393.78 264.065 391.584 263.117C389.387 262.169 387.476 260.882 385.851 259.257C384.226 257.633 382.94 255.722 381.992 253.525C381.044 251.328 380.57 248.981 380.57 246.484C380.57 243.986 381.044 241.639 381.992 239.443C382.94 237.246 384.226 235.335 385.851 233.71C387.476 232.085 389.387 230.799 391.584 229.851C393.78 228.903 396.127 228.429 398.625 228.429C401.122 228.429 403.47 228.903 405.666 229.851C407.863 230.799 409.774 232.085 411.399 233.71C413.023 235.335 414.31 237.246 415.258 239.443C416.206 241.639 416.679 243.986 416.679 246.484C416.679 248.981 416.206 251.328 415.258 253.525C414.31 255.722 413.023 257.633 411.399 259.257C409.774 260.882 407.863 262.169 405.666 263.117C403.47 264.065 401.122 264.538 398.625 264.538Z" fill="#10B981"/>
<path d="M517.614 234.334H501.928C500.085 234.334 498.318 235.066 497.015 236.369C495.712 237.673 494.979 239.44 494.979 241.283V289.925C494.979 291.768 495.712 293.535 497.015 294.838C498.318 296.141 500.085 296.873 501.928 296.873H550.57C552.413 296.873 554.18 296.141 555.484 294.838C556.787 293.535 557.519 291.768 557.519 289.925L557.519 274.241" stroke="#8F80AD" stroke-width="2.87536" stroke-linecap="round" stroke-linejoin="round"/>
<path d="M517.372 248.342H509.214" stroke="#8F80AD" stroke-width="2.87536" stroke-linecap="round" stroke-linejoin="round"/>
<path d="M524.665 265.711H509.214" stroke="#8F80AD" stroke-width="2.87536" stroke-linecap="round" stroke-linejoin="round"/>
<path d="M540.897 283.079H509.214" stroke="#8F80AD" stroke-width="2.87536" stroke-linecap="round" stroke-linejoin="round"/>
<path d="M546.691 249.014L551.927 254.25C552.258 254.581 552.679 254.746 553.191 254.746C553.702 254.746 554.123 254.581 554.454 254.25C554.786 253.919 554.951 253.497 554.951 252.986C554.951 252.474 554.786 252.053 554.454 251.722L549.218 246.486L554.454 241.25C554.786 240.919 554.951 240.497 554.951 239.986C554.951 239.474 554.786 239.053 554.454 238.722C554.123 238.391 553.702 238.225 553.191 238.225C552.679 238.225 552.258 238.391 551.927 238.722L546.691 243.958L541.454 238.722C541.123 238.391 540.702 238.225 540.19 238.225C539.679 238.225 539.258 238.391 538.927 238.722C538.596 239.053 538.43 239.474 538.43 239.986C538.43 240.497 538.596 240.919 538.927 241.25L544.163 246.486L538.927 251.722C538.596 252.053 538.43 252.474 538.43 252.986C538.43 253.497 538.596 253.919 538.927 254.25C539.258 254.581 539.679 254.746 540.19 254.746C540.702 254.746 541.123 254.581 541.454 254.25L546.691 249.014ZM546.691 264.542C544.193 264.542 541.846 264.068 539.649 263.12C537.452 262.172 535.541 260.885 533.916 259.26C532.291 257.635 531.005 255.724 530.057 253.528C529.109 251.331 528.635 248.984 528.635 246.486C528.635 243.988 529.109 241.641 530.057 239.444C531.005 237.247 532.291 235.336 533.916 233.711C535.541 232.086 537.452 230.8 539.649 229.852C541.846 228.904 544.193 228.43 546.691 228.43C549.188 228.43 551.535 228.904 553.732 229.852C555.929 230.8 557.84 232.086 559.465 233.711C561.09 235.336 562.376 237.247 563.324 239.444C564.272 241.641 564.746 243.988 564.746 246.486C564.746 248.984 564.272 251.331 563.324 253.528C562.376 255.724 561.09 257.635 559.465 259.26C557.84 260.885 555.929 262.172 553.732 263.12C551.535 264.068 549.188 264.542 546.691 264.542Z" fill="#F95050"/>
<path d="M669.505 231.38H653.82C651.977 231.38 650.21 232.113 648.906 233.416C647.603 234.719 646.871 236.486 646.871 238.329V286.971C646.871 288.814 647.603 290.581 648.906 291.885C650.21 293.188 651.977 293.92 653.82 293.92H702.462C704.305 293.92 706.072 293.188 707.375 291.885C708.678 290.581 709.41 288.814 709.41 286.971V273.707" stroke="#8F80AD" stroke-width="2.87536" stroke-linecap="round" stroke-linejoin="round"/>
<path d="M663.905 231.381L702.461 231.381C704.304 231.381 706.072 232.113 707.375 233.416C708.678 234.719 709.41 236.487 709.41 238.33V286.971C709.41 288.814 708.678 290.582 707.375 291.885C706.072 293.188 704.304 293.92 702.461 293.92H653.82C651.977 293.92 650.209 293.188 648.906 291.885C647.603 290.582 646.871 288.814 646.871 286.971V273.707" stroke="#8F80AD" stroke-width="2.87536" stroke-linecap="round" stroke-linejoin="round"/>
<path d="M686.481 271.508L684.202 269.23C684.008 269.035 683.761 268.938 683.461 268.938C683.161 268.938 682.913 269.035 682.719 269.23C682.525 269.424 682.428 269.671 682.428 269.971C682.428 270.272 682.525 270.519 682.719 270.713L685.739 273.733C685.951 273.945 686.198 274.051 686.481 274.051C686.763 274.051 687.01 273.945 687.222 273.733L693.209 267.746C693.403 267.552 693.5 267.305 693.5 267.005C693.5 266.704 693.403 266.457 693.209 266.263C693.015 266.069 692.767 265.971 692.467 265.971C692.167 265.971 691.92 266.069 691.726 266.263L686.481 271.508ZM687.964 280.196C686.498 280.196 685.121 279.918 683.832 279.362C682.542 278.806 681.421 278.051 680.467 277.097C679.514 276.143 678.759 275.022 678.203 273.733C677.646 272.444 677.368 271.066 677.368 269.6C677.368 268.135 677.646 266.757 678.203 265.468C678.759 264.179 679.514 263.058 680.467 262.104C681.421 261.15 682.542 260.395 683.832 259.839C685.121 259.283 686.498 259.005 687.964 259.005C689.43 259.005 690.807 259.283 692.096 259.839C693.386 260.395 694.507 261.15 695.461 262.104C696.414 263.058 697.169 264.179 697.725 265.468C698.282 266.757 698.56 268.135 698.56 269.6C698.56 271.066 698.282 272.444 697.725 273.733C697.169 275.022 696.414 276.143 695.461 277.097C694.507 278.051 693.386 278.806 692.096 279.362C690.807 279.918 689.43 280.196 687.964 280.196Z" fill="#10B981"/>
<path d="M669.439 277.491H661.424" stroke="#8F80AD" stroke-width="2.87536" stroke-linecap="round" stroke-linejoin="round"/>
<path d="M669.439 262.653H661.424" stroke="#8F80AD" stroke-width="2.87536" stroke-linecap="round" stroke-linejoin="round"/>
<path d="M694.858 247.814H661.424" stroke="#8F80AD" stroke-width="2.87536" stroke-linecap="round" stroke-linejoin="round"/>
<path d="M817.713 231.382H802.028C800.185 231.382 798.418 232.114 797.114 233.417C795.811 234.72 795.079 236.488 795.079 238.331V286.973C795.079 288.816 795.811 290.583 797.114 291.886C798.418 293.189 800.185 293.921 802.028 293.921H850.67C852.513 293.921 854.28 293.189 855.583 291.886C856.886 290.583 857.618 288.816 857.618 286.973V273.708" stroke="#8F80AD" stroke-width="2.87536" stroke-linecap="round" stroke-linejoin="round"/>
<path d="M812.114 231.382L850.67 231.382C852.513 231.382 854.281 232.115 855.584 233.418C856.887 234.721 857.619 236.488 857.619 238.331V286.973C857.619 288.816 856.887 290.583 855.584 291.886C854.281 293.19 852.513 293.922 850.67 293.922H802.029C800.186 293.922 798.418 293.19 797.115 291.886C795.812 290.583 795.08 288.816 795.08 286.973V273.709" stroke="#8F80AD" stroke-width="2.87536" stroke-linecap="round" stroke-linejoin="round"/>
<path d="M835.64 271.065L838.711 274.136C838.905 274.33 839.152 274.427 839.452 274.427C839.752 274.427 840 274.33 840.194 274.136C840.388 273.942 840.485 273.695 840.485 273.395C840.485 273.095 840.388 272.848 840.194 272.654L837.123 269.583L840.194 266.512C840.388 266.318 840.485 266.071 840.485 265.771C840.485 265.47 840.388 265.223 840.194 265.029C840 264.835 839.752 264.738 839.452 264.738C839.152 264.738 838.905 264.835 838.711 265.029L835.64 268.1L832.569 265.029C832.375 264.835 832.128 264.738 831.828 264.738C831.528 264.738 831.281 264.835 831.087 265.029C830.893 265.223 830.796 265.47 830.796 265.771C830.796 266.071 830.893 266.318 831.087 266.512L834.158 269.583L831.087 272.654C830.893 272.848 830.796 273.095 830.796 273.395C830.796 273.695 830.893 273.942 831.087 274.136C831.281 274.33 831.528 274.427 831.828 274.427C832.128 274.427 832.375 274.33 832.569 274.136L835.64 271.065ZM835.64 280.172C834.175 280.172 832.799 279.894 831.51 279.338C830.222 278.782 829.101 278.028 828.148 277.075C827.195 276.122 826.441 275.001 825.885 273.713C825.329 272.424 825.051 271.048 825.051 269.583C825.051 268.118 825.329 266.741 825.885 265.453C826.441 264.164 827.195 263.044 828.148 262.091C829.101 261.138 830.222 260.383 831.51 259.827C832.799 259.271 834.175 258.993 835.64 258.993C837.105 258.993 838.482 259.271 839.77 259.827C841.058 260.383 842.179 261.138 843.132 262.091C844.085 263.044 844.84 264.164 845.396 265.453C845.952 266.741 846.23 268.118 846.23 269.583C846.23 271.048 845.952 272.424 845.396 273.713C844.84 275.001 844.085 276.122 843.132 277.075C842.179 278.028 841.058 278.782 839.77 279.338C838.482 279.894 837.105 280.172 835.64 280.172Z" fill="#F95050"/>
<path d="M817.647 277.491H809.632" stroke="#8F80AD" stroke-width="2.87536" stroke-linecap="round" stroke-linejoin="round"/>
<path d="M817.647 262.653H809.632" stroke="#8F80AD" stroke-width="2.87536" stroke-linecap="round" stroke-linejoin="round"/>
<path d="M843.066 247.814H809.632" stroke="#8F80AD" stroke-width="2.87536" stroke-linecap="round" stroke-linejoin="round"/>
<path d="M692.374 659.579L692.587 659.768H692.871H997.213C1006.81 659.768 1013.97 659.769 1019.64 660.232C1025.31 660.695 1029.42 661.616 1032.96 663.419C1039.26 666.63 1044.39 671.753 1047.6 678.055C1049.4 681.594 1050.32 685.713 1050.79 691.376C1051.25 697.048 1051.25 704.204 1051.25 713.805V867.339C1051.25 876.94 1051.25 884.096 1050.79 889.768C1050.32 895.431 1049.4 899.55 1047.6 903.089C1044.39 909.391 1039.26 914.514 1032.96 917.725C1029.42 919.528 1025.31 920.449 1019.64 920.911C1013.97 921.375 1006.81 921.375 997.213 921.375H322.151C312.551 921.375 305.395 921.375 299.723 920.911C294.059 920.449 289.941 919.528 286.402 917.725C280.1 914.514 274.977 909.391 271.766 903.089C269.962 899.55 269.042 895.431 268.579 889.768C268.116 884.096 268.115 876.94 268.115 867.339V713.805C268.115 704.204 268.116 697.048 268.579 691.376C269.042 685.713 269.962 681.594 271.766 678.055C274.977 671.753 280.1 666.63 286.402 663.419C289.941 661.616 294.059 660.695 299.723 660.232C305.395 659.769 312.551 659.768 322.151 659.768H620.675H620.96L621.173 659.579L656.773 628.003L692.374 659.579Z" fill="#0E0521"/>
<path d="M692.374 659.579L692.587 659.768H692.871H997.213C1006.81 659.768 1013.97 659.769 1019.64 660.232C1025.31 660.695 1029.42 661.616 1032.96 663.419C1039.26 666.63 1044.39 671.753 1047.6 678.055C1049.4 681.594 1050.32 685.713 1050.79 691.376C1051.25 697.048 1051.25 704.204 1051.25 713.805V867.339C1051.25 876.94 1051.25 884.096 1050.79 889.768C1050.32 895.431 1049.4 899.55 1047.6 903.089C1044.39 909.391 1039.26 914.514 1032.96 917.725C1029.42 919.528 1025.31 920.449 1019.64 920.911C1013.97 921.375 1006.81 921.375 997.213 921.375H322.151C312.551 921.375 305.395 921.375 299.723 920.911C294.059 920.449 289.941 919.528 286.402 917.725C280.1 914.514 274.977 909.391 271.766 903.089C269.962 899.55 269.042 895.431 268.579 889.768C268.116 884.096 268.115 876.94 268.115 867.339V713.805C268.115 704.204 268.116 697.048 268.579 691.376C269.042 685.713 269.962 681.594 271.766 678.055C274.977 671.753 280.1 666.63 286.402 663.419C289.941 661.616 294.059 660.695 299.723 660.232C305.395 659.769 312.551 659.768 322.151 659.768H620.675H620.96L621.173 659.579L656.773 628.003L692.374 659.579Z" fill="url(#paint21_radial_3565_1853)" fill-opacity="0.8"/>
<path d="M692.374 659.579L692.587 659.768H692.871H997.213C1006.81 659.768 1013.97 659.769 1019.64 660.232C1025.31 660.695 1029.42 661.616 1032.96 663.419C1039.26 666.63 1044.39 671.753 1047.6 678.055C1049.4 681.594 1050.32 685.713 1050.79 691.376C1051.25 697.048 1051.25 704.204 1051.25 713.805V867.339C1051.25 876.94 1051.25 884.096 1050.79 889.768C1050.32 895.431 1049.4 899.55 1047.6 903.089C1044.39 909.391 1039.26 914.514 1032.96 917.725C1029.42 919.528 1025.31 920.449 1019.64 920.911C1013.97 921.375 1006.81 921.375 997.213 921.375H322.151C312.551 921.375 305.395 921.375 299.723 920.911C294.059 920.449 289.941 919.528 286.402 917.725C280.1 914.514 274.977 909.391 271.766 903.089C269.962 899.55 269.042 895.431 268.579 889.768C268.116 884.096 268.115 876.94 268.115 867.339V713.805C268.115 704.204 268.116 697.048 268.579 691.376C269.042 685.713 269.962 681.594 271.766 678.055C274.977 671.753 280.1 666.63 286.402 663.419C289.941 661.616 294.059 660.695 299.723 660.232C305.395 659.769 312.551 659.768 322.151 659.768H620.675H620.96L621.173 659.579L656.773 628.003L692.374 659.579Z" stroke="#736494" stroke-opacity="0.5" stroke-width="1.5"/>
<path d="M692.374 659.579L692.587 659.768H692.871H997.213C1006.81 659.768 1013.97 659.769 1019.64 660.232C1025.31 660.695 1029.42 661.616 1032.96 663.419C1039.26 666.63 1044.39 671.753 1047.6 678.055C1049.4 681.594 1050.32 685.713 1050.79 691.376C1051.25 697.048 1051.25 704.204 1051.25 713.805V867.339C1051.25 876.94 1051.25 884.096 1050.79 889.768C1050.32 895.431 1049.4 899.55 1047.6 903.089C1044.39 909.391 1039.26 914.514 1032.96 917.725C1029.42 919.528 1025.31 920.449 1019.64 920.911C1013.97 921.375 1006.81 921.375 997.213 921.375H322.151C312.551 921.375 305.395 921.375 299.723 920.911C294.059 920.449 289.941 919.528 286.402 917.725C280.1 914.514 274.977 909.391 271.766 903.089C269.962 899.55 269.042 895.431 268.579 889.768C268.116 884.096 268.115 876.94 268.115 867.339V713.805C268.115 704.204 268.116 697.048 268.579 691.376C269.042 685.713 269.962 681.594 271.766 678.055C274.977 671.753 280.1 666.63 286.402 663.419C289.941 661.616 294.059 660.695 299.723 660.232C305.395 659.769 312.551 659.768 322.151 659.768H620.675H620.96L621.173 659.579L656.773 628.003L692.374 659.579Z" stroke="url(#paint22_radial_3565_1853)" stroke-opacity="0.3" stroke-width="1.5" style="mix-blend-mode:overlay"/>
<path d="M692.374 659.579L692.587 659.768H692.871H997.213C1006.81 659.768 1013.97 659.769 1019.64 660.232C1025.31 660.695 1029.42 661.616 1032.96 663.419C1039.26 666.63 1044.39 671.753 1047.6 678.055C1049.4 681.594 1050.32 685.713 1050.79 691.376C1051.25 697.048 1051.25 704.204 1051.25 713.805V867.339C1051.25 876.94 1051.25 884.096 1050.79 889.768C1050.32 895.431 1049.4 899.55 1047.6 903.089C1044.39 909.391 1039.26 914.514 1032.96 917.725C1029.42 919.528 1025.31 920.449 1019.64 920.911C1013.97 921.375 1006.81 921.375 997.213 921.375H322.151C312.551 921.375 305.395 921.375 299.723 920.911C294.059 920.449 289.941 919.528 286.402 917.725C280.1 914.514 274.977 909.391 271.766 903.089C269.962 899.55 269.042 895.431 268.579 889.768C268.116 884.096 268.115 876.94 268.115 867.339V713.805C268.115 704.204 268.116 697.048 268.579 691.376C269.042 685.713 269.962 681.594 271.766 678.055C274.977 671.753 280.1 666.63 286.402 663.419C289.941 661.616 294.059 660.695 299.723 660.232C305.395 659.769 312.551 659.768 322.151 659.768H620.675H620.96L621.173 659.579L656.773 628.003L692.374 659.579Z" stroke="url(#paint23_radial_3565_1853)" stroke-width="1.5" style="mix-blend-mode:overlay"/>
<g clip-path="url(#clip0_3565_1853)">
<g filter="url(#filter0_d_3565_1853)">
<path d="M265.096 676L265.096 948.361H281.096V660C272.259 660 265.096 667.163 265.096 676Z" fill="#5EC900"/>
</g>
</g>
<rect x="323.739" y="700.067" width="163.65" height="163.65" rx="76.4423" fill="#42308C" fill-opacity="0.6"/>
<path d="M405.564 781.892C400.435 781.892 396.044 780.065 392.392 776.413C388.74 772.761 386.913 768.37 386.913 763.241C386.913 758.112 388.74 753.721 392.392 750.069C396.044 746.416 400.435 744.59 405.564 744.59C410.693 744.59 415.084 746.416 418.736 750.069C422.388 753.721 424.215 758.112 424.215 763.241C424.215 768.37 422.388 772.761 418.736 776.413C415.084 780.065 410.693 781.892 405.564 781.892ZM375.263 819.193C371.397 819.193 368.263 816.059 368.263 812.193V806.137C368.263 803.495 368.943 801.067 370.303 798.852C371.663 796.637 373.469 794.947 375.723 793.781C380.541 791.372 385.437 789.565 390.41 788.361C395.384 787.156 400.435 786.554 405.564 786.554C410.693 786.554 415.744 787.156 420.718 788.361C425.691 789.565 430.587 791.372 435.405 793.781C437.659 794.947 439.465 796.637 440.825 798.852C442.185 801.067 442.865 803.495 442.865 806.137V812.193C442.865 816.059 439.731 819.193 435.865 819.193H375.263Z" fill="#5743A7"/>
<path d="M570.546 767.538L559.621 752.088L570.546 736.638H599.35V767.538H570.546ZM578.161 760.917L583.9 755.178L589.638 760.917L592.728 757.827L586.99 752.088L592.728 746.35L589.638 743.26L583.9 748.998L578.161 743.26L575.071 746.35L580.81 752.088L575.071 757.827L578.161 760.917Z" fill="#F95050"/>
<path d="M636.638 736.508C639.894 736.508 642.739 737.139 645.174 738.4C647.638 739.632 649.53 741.422 650.85 743.768C652.199 746.086 652.874 748.799 652.874 751.908C652.874 755.018 652.199 757.716 650.85 760.004C649.53 762.292 647.638 764.052 645.174 765.284C642.739 766.487 639.894 767.088 636.638 767.088H626.65V736.508H636.638ZM636.638 762.996C640.216 762.996 642.959 762.028 644.866 760.092C646.772 758.156 647.726 755.428 647.726 751.908C647.726 748.359 646.772 745.587 644.866 743.592C642.959 741.598 640.216 740.6 636.638 740.6H631.666V762.996H636.638ZM680.065 754.372C680.065 755.282 680.006 756.103 679.889 756.836H661.365C661.512 758.772 662.23 760.327 663.521 761.5C664.812 762.674 666.396 763.26 668.273 763.26C670.972 763.26 672.878 762.131 673.993 759.872H679.405C678.672 762.102 677.337 763.935 675.401 765.372C673.494 766.78 671.118 767.484 668.273 767.484C665.956 767.484 663.873 766.971 662.025 765.944C660.206 764.888 658.769 763.422 657.713 761.544C656.686 759.638 656.173 757.438 656.173 754.944C656.173 752.451 656.672 750.266 657.669 748.388C658.696 746.482 660.118 745.015 661.937 743.988C663.785 742.962 665.897 742.448 668.273 742.448C670.561 742.448 672.6 742.947 674.389 743.944C676.178 744.942 677.572 746.35 678.569 748.168C679.566 749.958 680.065 752.026 680.065 754.372ZM674.829 752.788C674.8 750.94 674.14 749.459 672.849 748.344C671.558 747.23 669.96 746.672 668.053 746.672C666.322 746.672 664.841 747.23 663.609 748.344C662.377 749.43 661.644 750.911 661.409 752.788H674.829ZM690.017 734.528V767.088H685.001V734.528H690.017ZM718.823 754.372C718.823 755.282 718.764 756.103 718.647 756.836H700.123C700.269 758.772 700.988 760.327 702.279 761.5C703.569 762.674 705.153 763.26 707.031 763.26C709.729 763.26 711.636 762.131 712.751 759.872H718.163C717.429 762.102 716.095 763.935 714.159 765.372C712.252 766.78 709.876 767.484 707.031 767.484C704.713 767.484 702.631 766.971 700.783 765.944C698.964 764.888 697.527 763.422 696.471 761.544C695.444 759.638 694.931 757.438 694.931 754.944C694.931 752.451 695.429 750.266 696.427 748.388C697.453 746.482 698.876 745.015 700.695 743.988C702.543 742.962 704.655 742.448 707.031 742.448C709.319 742.448 711.357 742.947 713.147 743.944C714.936 744.942 716.329 746.35 717.327 748.168C718.324 749.958 718.823 752.026 718.823 754.372ZM713.587 752.788C713.557 750.94 712.897 749.459 711.607 748.344C710.316 747.23 708.717 746.672 706.811 746.672C705.08 746.672 703.599 747.23 702.367 748.344C701.135 749.43 700.401 750.911 700.167 752.788H713.587ZM729.611 746.936V760.356C729.611 761.266 729.816 761.926 730.227 762.336C730.667 762.718 731.4 762.908 732.427 762.908H735.507V767.088H731.547C729.288 767.088 727.558 766.56 726.355 765.504C725.152 764.448 724.551 762.732 724.551 760.356V746.936H721.691V742.844H724.551V736.816H729.611V742.844H735.507V746.936H729.611ZM762.35 754.372C762.35 755.282 762.291 756.103 762.174 756.836H743.65C743.797 758.772 744.515 760.327 745.806 761.5C747.097 762.674 748.681 763.26 750.558 763.26C753.257 763.26 755.163 762.131 756.278 759.872H761.69C760.957 762.102 759.622 763.935 757.686 765.372C755.779 766.78 753.403 767.484 750.558 767.484C748.241 767.484 746.158 766.971 744.31 765.944C742.491 764.888 741.054 763.422 739.998 761.544C738.971 759.638 738.458 757.438 738.458 754.944C738.458 752.451 738.957 750.266 739.954 748.388C740.981 746.482 742.403 745.015 744.222 743.988C746.07 742.962 748.182 742.448 750.558 742.448C752.846 742.448 754.885 742.947 756.674 743.944C758.463 744.942 759.857 746.35 760.854 748.168C761.851 749.958 762.35 752.026 762.35 754.372ZM757.114 752.788C757.085 750.94 756.425 749.459 755.134 748.344C753.843 747.23 752.245 746.672 750.338 746.672C748.607 746.672 747.126 747.23 745.894 748.344C744.662 749.43 743.929 750.911 743.694 752.788H757.114ZM765.614 754.856C765.614 752.422 766.113 750.266 767.11 748.388C768.137 746.511 769.516 745.059 771.246 744.032C773.006 742.976 774.957 742.448 777.098 742.448C778.682 742.448 780.237 742.8 781.762 743.504C783.317 744.179 784.549 745.088 785.458 746.232V734.528H790.518V767.088H785.458V763.436C784.637 764.61 783.493 765.578 782.026 766.34C780.589 767.103 778.932 767.484 777.054 767.484C774.942 767.484 773.006 766.956 771.246 765.9C769.516 764.815 768.137 763.319 767.11 761.412C766.113 759.476 765.614 757.291 765.614 754.856ZM785.458 754.944C785.458 753.272 785.106 751.82 784.402 750.588C783.728 749.356 782.833 748.418 781.718 747.772C780.604 747.127 779.401 746.804 778.11 746.804C776.82 746.804 775.617 747.127 774.502 747.772C773.388 748.388 772.478 749.312 771.774 750.544C771.1 751.747 770.762 753.184 770.762 754.856C770.762 756.528 771.1 757.995 771.774 759.256C772.478 760.518 773.388 761.486 774.502 762.16C775.646 762.806 776.849 763.128 778.11 763.128C779.401 763.128 780.604 762.806 781.718 762.16C782.833 761.515 783.728 760.576 784.402 759.344C785.106 758.083 785.458 756.616 785.458 754.944ZM813.552 746.452C814.403 745.279 815.562 744.326 817.028 743.592C818.524 742.83 820.182 742.448 822 742.448C824.142 742.448 826.078 742.962 827.808 743.988C829.539 745.015 830.903 746.482 831.9 748.388C832.898 750.266 833.396 752.422 833.396 754.856C833.396 757.291 832.898 759.476 831.9 761.412C830.903 763.319 829.524 764.815 827.764 765.9C826.034 766.956 824.112 767.484 822 767.484C820.123 767.484 818.451 767.118 816.984 766.384C815.547 765.651 814.403 764.712 813.552 763.568V767.088H808.536V734.528H813.552V746.452ZM828.292 754.856C828.292 753.184 827.94 751.747 827.236 750.544C826.562 749.312 825.652 748.388 824.508 747.772C823.394 747.127 822.191 746.804 820.9 746.804C819.639 746.804 818.436 747.127 817.292 747.772C816.178 748.418 815.268 749.356 814.564 750.588C813.89 751.82 813.552 753.272 813.552 754.944C813.552 756.616 813.89 758.083 814.564 759.344C815.268 760.576 816.178 761.515 817.292 762.16C818.436 762.806 819.639 763.128 820.9 763.128C822.191 763.128 823.394 762.806 824.508 762.16C825.652 761.486 826.562 760.518 827.236 759.256C827.94 757.995 828.292 756.528 828.292 754.856ZM860.181 742.844L845.309 778.484H840.117L845.045 766.692L835.497 742.844H841.085L847.905 761.324L854.989 742.844H860.181ZM885.384 736.508C888.64 736.508 891.485 737.139 893.92 738.4C896.384 739.632 898.276 741.422 899.596 743.768C900.945 746.086 901.62 748.799 901.62 751.908C901.62 755.018 900.945 757.716 899.596 760.004C898.276 762.292 896.384 764.052 893.92 765.284C891.485 766.487 888.64 767.088 885.384 767.088H875.396V736.508H885.384ZM885.384 762.996C888.962 762.996 891.705 762.028 893.612 760.092C895.518 758.156 896.472 755.428 896.472 751.908C896.472 748.359 895.518 745.587 893.612 743.592C891.705 741.598 888.962 740.6 885.384 740.6H880.412V762.996H885.384ZM904.919 754.856C904.919 752.422 905.418 750.266 906.415 748.388C907.442 746.511 908.82 745.059 910.551 744.032C912.311 742.976 914.247 742.448 916.359 742.448C918.266 742.448 919.923 742.83 921.331 743.592C922.768 744.326 923.912 745.25 924.763 746.364V742.844H929.823V767.088H924.763V763.48C923.912 764.624 922.754 765.578 921.287 766.34C919.82 767.103 918.148 767.484 916.271 767.484C914.188 767.484 912.282 766.956 910.551 765.9C908.82 764.815 907.442 763.319 906.415 761.412C905.418 759.476 904.919 757.291 904.919 754.856ZM924.763 754.944C924.763 753.272 924.411 751.82 923.707 750.588C923.032 749.356 922.138 748.418 921.023 747.772C919.908 747.127 918.706 746.804 917.415 746.804C916.124 746.804 914.922 747.127 913.807 747.772C912.692 748.388 911.783 749.312 911.079 750.544C910.404 751.747 910.067 753.184 910.067 754.856C910.067 756.528 910.404 757.995 911.079 759.256C911.783 760.518 912.692 761.486 913.807 762.16C914.951 762.806 916.154 763.128 917.415 763.128C918.706 763.128 919.908 762.806 921.023 762.16C922.138 761.515 923.032 760.576 923.707 759.344C924.411 758.083 924.763 756.616 924.763 754.944ZM945.783 762.6L952.647 742.844H957.971L948.731 767.088H942.747L933.551 742.844H938.919L945.783 762.6ZM964.315 739.632C963.406 739.632 962.643 739.324 962.027 738.708C961.411 738.092 961.103 737.33 961.103 736.42C961.103 735.511 961.411 734.748 962.027 734.132C962.643 733.516 963.406 733.208 964.315 733.208C965.195 733.208 965.943 733.516 966.559 734.132C967.175 734.748 967.483 735.511 967.483 736.42C967.483 737.33 967.175 738.092 966.559 738.708C965.943 739.324 965.195 739.632 964.315 739.632ZM966.779 742.844V767.088H961.763V742.844H966.779ZM971.692 754.856C971.692 752.422 972.191 750.266 973.188 748.388C974.215 746.511 975.594 745.059 977.324 744.032C979.084 742.976 981.035 742.448 983.176 742.448C984.76 742.448 986.315 742.8 987.84 743.504C989.395 744.179 990.627 745.088 991.536 746.232V734.528H996.596V767.088H991.536V763.436C990.715 764.61 989.571 765.578 988.104 766.34C986.667 767.103 985.01 767.484 983.132 767.484C981.02 767.484 979.084 766.956 977.324 765.9C975.594 764.815 974.215 763.319 973.188 761.412C972.191 759.476 971.692 757.291 971.692 754.856ZM991.536 754.944C991.536 753.272 991.184 751.82 990.48 750.588C989.806 749.356 988.911 748.418 987.796 747.772C986.682 747.127 985.479 746.804 984.188 746.804C982.898 746.804 981.695 747.127 980.58 747.772C979.466 748.388 978.556 749.312 977.852 750.544C977.178 751.747 976.84 753.184 976.84 754.856C976.84 756.528 977.178 757.995 977.852 759.256C978.556 760.518 979.466 761.486 980.58 762.16C981.724 762.806 982.927 763.128 984.188 763.128C985.479 763.128 986.682 762.806 987.796 762.16C988.911 761.515 989.806 760.576 990.48 759.344C991.184 758.083 991.536 756.616 991.536 754.944Z" fill="#664E8F"/>
<rect x="559.621" y="821.204" width="309.506" height="23.4903" rx="8.03361" fill="url(#paint24_linear_3565_1853)" fill-opacity="0.3"/>
<defs>
<filter id="filter0_d_3565_1853" x="196.908" y="639.544" width="152.375" height="424.736" filterUnits="userSpaceOnUse" color-interpolation-filters="sRGB">
<feFlood flood-opacity="0" result="BackgroundImageFix"/>
<feColorMatrix in="SourceAlpha" type="matrix" values="0 0 0 0 0 0 0 0 0 0 0 0 0 0 0 0 0 0 127 0" result="hardAlpha"/>
<feOffset dy="47.7312"/>
<feGaussianBlur stdDeviation="34.0937"/>
<feComposite in2="hardAlpha" operator="out"/>
<feColorMatrix type="matrix" values="0 0 0 0 0.0722259 0 0 0 0 0.145783 0 0 0 0 0.53304 0 0 0 0.04 0"/>
<feBlend mode="normal" in2="BackgroundImageFix" result="effect1_dropShadow_3565_1853"/>
<feBlend mode="normal" in="SourceGraphic" in2="effect1_dropShadow_3565_1853" result="shape"/>
</filter>
<radialGradient id="paint0_radial_3565_1853" cx="0" cy="0" r="1" gradientUnits="userSpaceOnUse" gradientTransform="translate(1263.64 -1027.1) rotate(83.4644) scale(2900.99 2490.76)">
<stop stop-color="#2E2541" stop-opacity="0"/>
<stop offset="1" stop-color="#210065"/>
</radialGradient>
<radialGradient id="paint1_radial_3565_1853" cx="0" cy="0" r="1" gradientUnits="userSpaceOnUse" gradientTransform="translate(194.043 848.735) rotate(-96.7328) scale(708.322 612.777)">
<stop stop-color="white" stop-opacity="0"/>
<stop offset="1" stop-color="white"/>
</radialGradient>
<radialGradient id="paint2_radial_3565_1853" cx="0" cy="0" r="1" gradientUnits="userSpaceOnUse" gradientTransform="translate(956.027 1249.3) rotate(-157.036) scale(1327.18 10287.1)">
<stop stop-color="#0E0521" stop-opacity="0"/>
<stop offset="1" stop-color="#0E0521"/>
</radialGradient>
<linearGradient id="paint3_linear_3565_1853" x1="462.416" y1="422.982" x2="1148.38" y2="422.982" gradientUnits="userSpaceOnUse">
<stop stop-color="#7D64AE" stop-opacity="0.4"/>
<stop offset="1" stop-color="#6A3ACA"/>
</linearGradient>
<linearGradient id="paint4_linear_3565_1853" x1="171.047" y1="507.982" x2="570.034" y2="507.982" gradientUnits="userSpaceOnUse">
<stop stop-color="#7D64AE" stop-opacity="0.4"/>
<stop offset="1" stop-color="#6A3ACA"/>
</linearGradient>
<linearGradient id="paint5_linear_3565_1853" x1="440.145" y1="507.982" x2="839.132" y2="507.982" gradientUnits="userSpaceOnUse">
<stop stop-color="#7D64AE" stop-opacity="0.4"/>
<stop offset="1" stop-color="#6A3ACA"/>
</linearGradient>
<linearGradient id="paint6_linear_3565_1853" x1="709.241" y1="507.982" x2="979.844" y2="507.982" gradientUnits="userSpaceOnUse">
<stop stop-color="#7D64AE" stop-opacity="0.4"/>
<stop offset="1" stop-color="#6A3ACA"/>
</linearGradient>
<linearGradient id="paint7_linear_3565_1853" x1="171.047" y1="592.982" x2="300.954" y2="592.982" gradientUnits="userSpaceOnUse">
<stop stop-color="#7D64AE" stop-opacity="0.4"/>
<stop offset="1" stop-color="#6A3ACA"/>
</linearGradient>
<linearGradient id="paint8_linear_3565_1853" x1="280.244" y1="592.982" x2="503.1" y2="592.982" gradientUnits="userSpaceOnUse">
<stop stop-color="#7D64AE" stop-opacity="0.4"/>
<stop offset="1" stop-color="#6A3ACA"/>
</linearGradient>
<linearGradient id="paint9_linear_3565_1853" x1="171.047" y1="677.982" x2="552.408" y2="677.982" gradientUnits="userSpaceOnUse">
<stop stop-color="#7D64AE" stop-opacity="0.4"/>
<stop offset="1" stop-color="#6A3ACA"/>
</linearGradient>
<linearGradient id="paint10_linear_3565_1853" x1="429.67" y1="677.982" x2="1170.74" y2="677.982" gradientUnits="userSpaceOnUse">
<stop stop-color="#E3E6ED" stop-opacity="0.5"/>
<stop offset="1" stop-color="#E3E6ED"/>
</linearGradient>
<linearGradient id="paint11_linear_3565_1853" x1="171.047" y1="762.982" x2="579.784" y2="762.982" gradientUnits="userSpaceOnUse">
<stop stop-color="#7D64AE" stop-opacity="0.4"/>
<stop offset="1" stop-color="#6A3ACA"/>
</linearGradient>
<linearGradient id="paint12_linear_3565_1853" x1="445.937" y1="762.982" x2="1159.63" y2="762.982" gradientUnits="userSpaceOnUse">
<stop stop-color="#E3E6ED" stop-opacity="0.5"/>
<stop offset="1" stop-color="#E3E6ED"/>
</linearGradient>
<linearGradient id="paint13_linear_3565_1853" x1="171.047" y1="847.982" x2="300.954" y2="847.982" gradientUnits="userSpaceOnUse">
<stop stop-color="#7D64AE" stop-opacity="0.4"/>
<stop offset="1" stop-color="#6A3ACA"/>
</linearGradient>
<linearGradient id="paint14_linear_3565_1853" x1="280.244" y1="847.982" x2="1272.77" y2="847.982" gradientUnits="userSpaceOnUse">
<stop stop-color="#E3E6ED" stop-opacity="0.5"/>
<stop offset="1" stop-color="#E3E6ED"/>
</linearGradient>
<linearGradient id="paint15_linear_3565_1853" x1="171.047" y1="932.982" x2="300.954" y2="932.982" gradientUnits="userSpaceOnUse">
<stop stop-color="#7D64AE" stop-opacity="0.4"/>
<stop offset="1" stop-color="#6A3ACA"/>
</linearGradient>
<linearGradient id="paint16_linear_3565_1853" x1="280.244" y1="932.982" x2="1272.77" y2="932.982" gradientUnits="userSpaceOnUse">
<stop stop-color="#7D64AE" stop-opacity="0.4"/>
<stop offset="1" stop-color="#6A3ACA"/>
</linearGradient>
<linearGradient id="paint17_linear_3565_1853" x1="328.81" y1="1017.98" x2="1239.6" y2="1017.98" gradientUnits="userSpaceOnUse">
<stop stop-color="#7D64AE" stop-opacity="0.4"/>
<stop offset="1" stop-color="#6A3ACA"/>
</linearGradient>
<radialGradient id="paint18_radial_3565_1853" cx="0" cy="0" r="1" gradientUnits="userSpaceOnUse" gradientTransform="translate(1307.96 15.5579) rotate(50.5632) scale(589.055 2194.23)">
<stop stop-color="#2E2541" stop-opacity="0"/>
<stop offset="1" stop-color="#210065"/>
</radialGradient>
<radialGradient id="paint19_radial_3565_1853" cx="0" cy="0" r="1" gradientUnits="userSpaceOnUse" gradientTransform="translate(95.8613 311.656) rotate(-130.282) scale(145.551 533.428)">
<stop stop-color="white" stop-opacity="0"/>
<stop offset="1" stop-color="white"/>
</radialGradient>
<radialGradient id="paint20_radial_3565_1853" cx="0" cy="0" r="1" gradientUnits="userSpaceOnUse" gradientTransform="translate(959.362 374.885) rotate(-176.622) scale(1387.21 1760.52)">
<stop stop-color="#0E0521" stop-opacity="0"/>
<stop offset="1" stop-color="#0E0521"/>
</radialGradient>
<radialGradient id="paint21_radial_3565_1853" cx="0" cy="0" r="1" gradientUnits="userSpaceOnUse" gradientTransform="translate(1370.3 348.61) rotate(67.9403) scale(841.256 2223.31)">
<stop stop-color="#2E2541" stop-opacity="0"/>
<stop offset="1" stop-color="#210065"/>
</radialGradient>
<radialGradient id="paint22_radial_3565_1853" cx="0" cy="0" r="1" gradientUnits="userSpaceOnUse" gradientTransform="translate(346.827 856.057) rotate(-112.664) scale(206.217 544.828)">
<stop stop-color="white" stop-opacity="0"/>
<stop offset="1" stop-color="white"/>
</radialGradient>
<radialGradient id="paint23_radial_3565_1853" cx="0" cy="0" r="1" gradientUnits="userSpaceOnUse" gradientTransform="translate(1075.95 964.418) rotate(-173.169) scale(1177.65 3000.92)">
<stop stop-color="#0E0521" stop-opacity="0"/>
<stop offset="1" stop-color="#0E0521"/>
</radialGradient>
<linearGradient id="paint24_linear_3565_1853" x1="559.621" y1="832.95" x2="1080.46" y2="832.95" gradientUnits="userSpaceOnUse">
<stop stop-color="#7D64AE" stop-opacity="0.4"/>
<stop offset="1" stop-color="#6A3ACA"/>
</linearGradient>
<clipPath id="clip0_3565_1853">
<rect x="267" y="660" width="261" height="260" rx="32" fill="white"/>
</clipPath>
</defs>
</svg>
